<?xml version="1.0" encoding="UTF-8"?>
<svg version="1.1" xmlns="http://www.w3.org/2000/svg" width="735" height="386">
<path d="M0 0 C242.55 0 485.1 0 735 0 C735 127.38 735 254.76 735 386 C492.45 386 249.9 386 0 386 C0 258.62 0 131.24 0 0 Z " fill="#000000" transform="translate(0,0)"/>
<path d="M0 0 C60.39 0 120.78 0 183 0 C180.525 1.98 180.525 1.98 178 4 C175.64538901 7.53191649 175.74718587 8.98077627 175.73993778 13.16483879 C175.73287219 14.4635516 175.7258066 15.7622644 175.7185269 17.10033214 C175.72077848 18.5501139 175.723225 19.99989537 175.72584534 21.44967651 C175.72139538 22.98313062 175.71608215 24.51658242 175.70997661 26.05003083 C175.69575711 30.27500279 175.69413407 34.49990134 175.69457352 38.72489381 C175.6929288 43.27714205 175.67986883 47.82935973 175.66838074 52.3815918 C175.64550558 62.34010951 175.63760756 72.29860594 175.63255429 82.25714636 C175.62930047 88.4719827 175.62277995 94.68681283 175.6155529 100.90164566 C175.59598441 118.09964995 175.57958142 135.29764846 175.57667637 152.4956646 C175.5764888 153.59675281 175.57630123 154.69784102 175.57610798 155.83229554 C175.57574172 158.06458672 175.57537802 160.29687789 175.57501686 162.52916907 C175.57483405 163.6373216 175.57465124 164.74547412 175.57446289 165.88720703 C175.57428234 166.99670767 175.57410179 168.10620831 175.57391577 169.24933018 C175.57037254 187.23569193 175.54334197 205.22193407 175.505965 223.20825432 C175.4679214 241.66261239 175.44851919 260.11691104 175.44821686 278.57130921 C175.44763143 288.93765332 175.43908439 299.30385473 175.41021919 309.6701622 C175.38575814 318.49556316 175.37838666 327.32076938 175.39346672 336.14619504 C175.40065709 340.65117061 175.39968714 345.15576122 175.37705612 349.66069412 C175.35654728 353.78257498 175.35898979 357.90377295 175.37993097 362.02564575 C175.38344147 363.51891073 175.37845012 365.01222419 175.36422653 366.50542556 C175.34616787 368.53136899 175.36179013 370.55752959 175.37917423 372.58347893 C175.37835978 373.71000181 175.37754532 374.83652469 175.37670618 375.99718463 C176.42372816 381.04137661 179.87516606 383.25011071 184 386 C123.28 386 62.56 386 0 386 C0 258.62 0 131.24 0 0 Z " fill="#FEFEFE" transform="translate(0,0)"/>
<path d="M0 0 C60.39 0 120.78 0 183 0 C183 127.38 183 254.76 183 386 C122.28 386 61.56 386 -1 386 C0.32 385.34 1.64 384.68 3 384 C6.4468668 379.77742517 7.50040861 376.89572966 7.50615788 371.48163509 C7.51720556 370.18043254 7.52825325 368.87922998 7.53963572 367.53859705 C7.53167907 366.10157055 7.52334141 364.66454613 7.5146637 363.2275238 C7.51998976 361.69560119 7.5270558 360.16368381 7.53571075 358.63177639 C7.55435682 354.42488942 7.54802646 350.218354 7.53755772 346.01145232 C7.53057138 341.47355612 7.54655922 336.93573256 7.55955505 332.39785767 C7.5812088 323.50952465 7.5810648 314.62131959 7.57292951 305.73296886 C7.56663305 298.51060153 7.56776328 291.28827155 7.57420158 284.06590462 C7.57555407 282.52480092 7.57555407 282.52480092 7.57693387 280.95256381 C7.57878504 278.86551466 7.5806476 276.77846552 7.58252143 274.69141639 C7.59910429 255.11618578 7.59037612 235.54102723 7.57353585 215.96580095 C7.55883416 198.04751909 7.57347305 180.12940484 7.60230602 162.21114456 C7.63168005 143.81996032 7.64267839 125.4288535 7.63312382 107.03764683 C7.63210124 104.95852444 7.63110663 102.87940203 7.6301403 100.80027962 C7.62966391 99.77726819 7.62918752 98.75425677 7.6286967 97.700245 C7.62653017 90.48444892 7.63634919 83.26872595 7.65091133 76.05294609 C7.6684039 67.26236833 7.66836143 58.4720044 7.64555968 49.68143516 C7.63439018 45.19467763 7.63131601 40.70829728 7.64986038 36.22155571 C7.66660954 32.1164273 7.66039058 28.01200669 7.63564359 23.90692461 C7.63074153 22.41981398 7.63432692 20.93264686 7.64713103 19.44558328 C7.66325353 17.42794937 7.64571231 15.41012978 7.62641239 13.39252377 C7.6261427 12.27066486 7.62587301 11.14880596 7.62559515 9.99295133 C6.80141362 6.04992969 5.00627786 4.58730203 2 2 C1.34 1.34 0.68 0.68 0 0 Z " fill="#FEFEFE" transform="translate(552,0)"/>
<path d="M0 0 C3.27981751 2.06771104 4.84746007 3.77119011 7 7 C8.0764163 14.49297583 6.00461781 20.64973471 4 28 C12.25 28 20.5 28 29 28 C30.3738652 21.16705666 30.3738652 21.16705666 31.67578125 14.3203125 C31.99095703 12.73863281 31.99095703 12.73863281 32.3125 11.125 C32.51488281 10.05507812 32.71726562 8.98515625 32.92578125 7.8828125 C34.26479981 4.28937361 35.79303018 3.03993643 39 1 C41.69236468 0.0039807 44.13996094 -0.24114055 47 0 C50.83742158 1.95491288 54.05020508 4.10041016 56 8 C56.75021748 15.00202977 54.8806692 21.28332429 53 28 C53.76699219 28.13664062 54.53398437 28.27328125 55.32421875 28.4140625 C59.03788638 29.22727439 60.54174079 30.05008895 63 33 C63.92998393 38.20309974 63.85959213 42.51794461 61.1875 47.125 C57.95878183 49.89247272 55.4121587 50.12191534 51.3125 50.0625 C50.10013672 50.04896484 50.10013672 50.04896484 48.86328125 50.03515625 C48.24839844 50.02355469 47.63351562 50.01195312 47 50 C46.86722656 50.91523438 46.73445313 51.83046875 46.59765625 52.7734375 C46.42105469 53.96195313 46.24445313 55.15046875 46.0625 56.375 C45.88847656 57.55835938 45.71445312 58.74171875 45.53515625 59.9609375 C45 63 45 63 44 65 C44.72445312 64.95359375 45.44890625 64.9071875 46.1953125 64.859375 C52.32855863 64.63040048 56.27231273 64.62688928 61 69 C63.77189158 72.21897087 64 73.6935573 64 78 C63.28721779 82.2366493 61.34877008 84.30464847 58 87 C54.70039859 88.6498007 51.00872116 88.38258361 47.375 88.5625 C46.57320313 88.60568359 45.77140625 88.64886719 44.9453125 88.69335938 C42.9637489 88.79951457 40.98189729 88.90026855 39 89 C38.63648438 90.84464844 38.63648438 90.84464844 38.265625 92.7265625 C37.9277722 94.35951768 37.58919192 95.99232246 37.25 97.625 C37.09273438 98.43324219 36.93546875 99.24148437 36.7734375 100.07421875 C35.47798537 106.20270381 33.56821759 110.2483383 29.25 114.875 C25.87397267 116.56301366 22.6479093 116.66721204 19 116 C15.72018249 113.93228896 14.15253993 112.22880989 12 109 C11.37135234 101.07903948 12.95007153 96.1997139 15 88 C6.75 88 -1.5 88 -10 88 C-11.19219938 94.35479663 -11.19219938 94.35479663 -12.36254883 100.71362305 C-13.2541352 105.31528436 -14.04727114 109.22290521 -17 113 C-21.03604332 115.6010057 -24.21667202 116.79722133 -29 116 C-32.5633205 113.53308581 -35.74632675 111.26248906 -37 107 C-37.68886794 100.38686774 -35.74946093 94.34179585 -34 88 C-34.77859375 87.87496094 -35.5571875 87.74992187 -36.359375 87.62109375 C-39.64086035 86.8492651 -40.84712849 85.53731285 -43 83 C-44.73125121 79.53749757 -44.47815224 75.78591771 -44 72 C-41.93354779 68.53131237 -39.89808091 66.19108028 -36 65 C-33.30903473 64.84992694 -30.69998637 64.91000045 -28 65 C-27.86722656 64.15695313 -27.73445313 63.31390625 -27.59765625 62.4453125 C-27.42105469 61.34960938 -27.24445313 60.25390625 -27.0625 59.125 C-26.80146484 57.48917969 -26.80146484 57.48917969 -26.53515625 55.8203125 C-26 53 -26 53 -25 51 C-25.72445313 51.04640625 -26.44890625 51.0928125 -27.1953125 51.140625 C-33.35168413 51.37046287 -37.19598106 51.31129905 -42 47 C-44.81454595 42.77818108 -44.80684081 38.95969791 -44 34 C-41.5625 30.9375 -41.5625 30.9375 -39 29 C-38.67 28.67 -38.34 28.34 -38 28 C-36.65984779 27.84417697 -35.31241097 27.74955858 -33.96484375 27.68359375 C-33.15595703 27.64169922 -32.34707031 27.59980469 -31.51367188 27.55664062 C-30.66353516 27.51732422 -29.81339844 27.47800781 -28.9375 27.4375 C-28.08349609 27.39431641 -27.22949219 27.35113281 -26.34960938 27.30664062 C-24.23327963 27.20023298 -22.11666187 27.09958269 -20 27 C-19.89453857 26.45061768 -19.78907715 25.90123535 -19.68041992 25.33520508 C-19.19278158 22.82557422 -18.69029013 20.31913732 -18.1875 17.8125 C-18.02185547 16.94818359 -17.85621094 16.08386719 -17.68554688 15.19335938 C-16.5373701 9.53913036 -15.42557105 5.00975887 -10.8125 1.1875 C-7.09824902 -0.3807393 -3.97363309 -0.74002883 0 0 Z " fill="#FAFAFA" transform="translate(419,135)"/>
<path d="M0 0 C8.19529207 5.41881832 8.19529207 5.41881832 10 10 C10.75148387 16.656 10.75148387 16.656 8.984375 19.81640625 C5.8324716 23.7562855 3.46308243 24.76058651 -1.4375 25.5625 C-6.90665201 25.54239282 -10.57010314 22.22010093 -14.77734375 19.04296875 C-21.66755399 14.67499305 -28.43470327 13.46114226 -36.5 13.5625 C-37.33297607 13.56862305 -38.16595215 13.57474609 -39.02416992 13.58105469 C-45.09117578 13.73587082 -49.86613531 14.59691429 -55 18 C-56.0725 18.639375 -57.145 19.27875 -58.25 19.9375 C-61.13213405 22.09910054 -63.5517389 24.35845513 -66 27 C-66.680625 27.721875 -67.36125 28.44375 -68.0625 29.1875 C-72.94739169 36.27847181 -74.37169536 42.67878716 -74.4375 51.1875 C-74.44749023 51.94764404 -74.45748047 52.70778809 -74.46777344 53.4909668 C-74.36200396 60.42113397 -72.21168616 65.45966383 -68.375 71.25 C-66.83139064 73.58880207 -65.89931615 75.30205156 -65 78 C-64.34 78 -63.68 78 -63 78 C-63 78.66 -63 79.32 -63 80 C-62.16662109 80.41572266 -62.16662109 80.41572266 -61.31640625 80.83984375 C-59.7179789 81.64040517 -58.12175099 82.44536798 -56.52734375 83.25390625 C-55.67269531 83.68574219 -54.81804687 84.11757812 -53.9375 84.5625 C-53.08027344 84.99691406 -52.22304688 85.43132812 -51.33984375 85.87890625 C-43.43186591 89.66787059 -32.3727473 89.12752977 -23.91015625 87.3515625 C-19.30671715 85.6056877 -15.4983829 83.00380367 -11.4375 80.25 C-7.10951724 77.38715588 -4.14790354 76.25871961 1.02734375 76.55859375 C4.32413849 77.29629237 6.38714216 78.34656482 8.7109375 80.82421875 C11.04107733 84.75721234 10.90083681 88.59818379 10 93 C5.13868967 101.68342751 -8.79864969 107.74515343 -17.9375 110.52734375 C-32.50713392 113.86621819 -49.68360732 114.34831596 -63 107 C-64.30904297 106.33097656 -64.30904297 106.33097656 -65.64453125 105.6484375 C-80.81009733 97.30854094 -91.22273116 83.97851877 -97.14453125 67.890625 C-100.85503536 51.01545562 -98.9186914 33.37739041 -89.8125 18.75 C-83.27932792 8.89845536 -75.4212376 1.64036056 -65 -4 C-63.9584375 -4.58265625 -62.916875 -5.1653125 -61.84375 -5.765625 C-42.27072957 -15.19946818 -17.87070055 -11.36970555 0 0 Z " fill="#FAFAFA" transform="translate(351,142)"/>
<path d="M0 0 C8.25 0 16.5 0 25 0 C24 9 24 9 22 14 C14.08 14 6.16 14 -2 14 C-1.47942079 9.31478714 -0.92450033 4.62250164 0 0 Z " fill="#040404" transform="translate(417,186)"/>
<path d="M0 0 C-0.1875 1.8125 -0.1875 1.8125 -1 4 C-3.26546849 5.56840126 -5.5414529 6.77072645 -8 8 C-6.65580512 3.85539913 -4.87800266 0 0 0 Z " fill="#DADADA" transform="translate(383,163)"/>
</svg>
