<?xml version="1.0" encoding="UTF-8"?>
<svg version="1.1" xmlns="http://www.w3.org/2000/svg" width="310" height="163">
<path d="M0 0 C102.3 0 204.6 0 310 0 C310 53.79 310 107.58 310 163 C207.7 163 105.4 163 0 163 C0 109.21 0 55.42 0 0 Z " fill="#000000" transform="translate(0,0)"/>
<path d="M0 0 C25.41 0 50.82 0 77 0 C77 53.79 77 107.58 77 163 C51.59 163 26.18 163 0 163 C0.66 162.67 1.32 162.34 2 162 C2 108.87 2 55.74 2 1 C1.34 0.67 0.68 0.34 0 0 Z " fill="#FDFDFD" transform="translate(233,0)"/>
<path d="M0 0 C25.41 0 50.82 0 77 0 C76.34 0.66 75.68 1.32 75 2 C74.69432962 4.85522852 74.69432962 4.85522852 74.74603271 8.26330566 C74.74291273 8.91288821 74.73979275 9.56247075 74.73657823 10.23173761 C74.72857201 12.41825469 74.73493189 14.60449626 74.74121094 16.79101562 C74.73850223 18.3545498 74.73494198 19.91808269 74.73059082 21.48161316 C74.72145017 25.73565723 74.72501794 29.98960461 74.73134899 34.24365044 C74.73640034 38.68835594 74.73171996 43.13305297 74.72857666 47.57775879 C74.72493448 55.04290254 74.7297427 62.50800677 74.73925781 69.97314453 C74.75014285 78.61302499 74.74661745 87.25281106 74.735605 95.89268923 C74.72653928 103.30077566 74.72524334 110.70883362 74.73048234 118.11692381 C74.73360599 122.54580451 74.73400061 126.9746408 74.72740936 131.40351868 C74.7216469 135.56657152 74.72561252 139.72950228 74.73719788 143.89254189 C74.73985037 145.42363087 74.73906937 146.95473008 74.73467255 148.48581505 C74.72923871 150.56958187 74.73602439 152.65295299 74.74603271 154.73669434 C74.74678677 155.90477379 74.74754082 157.07285324 74.74831772 158.27632904 C74.72102038 161.1470495 74.72102038 161.1470495 77 163 C51.59 163 26.18 163 0 163 C0 109.21 0 55.42 0 0 Z " fill="#FDFDFD" transform="translate(0,0)"/>
<path d="M0 0 C2.4375 0.8125 2.4375 0.8125 4.4375 2.8125 C4.40442593 5.86633879 3.87054158 8.78120896 3.4375 11.8125 C6.7375 11.8125 10.0375 11.8125 13.4375 11.8125 C13.540625 10.389375 13.64375 8.96625 13.75 7.5 C13.95038614 4.73467129 14.11704183 3.24256415 15.78515625 1.00390625 C17.4375 -0.1875 17.4375 -0.1875 20.5625 0.0625 C23.4375 0.8125 23.4375 0.8125 24.4375 1.8125 C24.67630597 9.33488806 24.67630597 9.33488806 23.4375 11.8125 C24.7575 12.1425 26.0775 12.4725 27.4375 12.8125 C28.0625 15.125 28.0625 15.125 28.4375 17.8125 C26.4375 20.8125 26.4375 20.8125 23.8125 21.5 C23.02875 21.603125 22.245 21.70625 21.4375 21.8125 C20.7775 23.7925 20.1175 25.7725 19.4375 27.8125 C21.108125 27.7196875 21.108125 27.7196875 22.8125 27.625 C24.606875 27.7178125 24.606875 27.7178125 26.4375 27.8125 C28.4375 30.8125 28.4375 30.8125 28.125 33.4375 C27.4375 35.8125 27.4375 35.8125 26.4375 36.8125 C24.91821962 36.88429964 23.39582518 36.89642007 21.875 36.875 C21.04871094 36.86597656 20.22242188 36.85695312 19.37109375 36.84765625 C18.73300781 36.83605469 18.09492188 36.82445312 17.4375 36.8125 C17.334375 38.05 17.23125 39.2875 17.125 40.5625 C16.67191095 44.06307843 16.22472453 46.4234504 13.4375 48.8125 C10.875 49.1875 10.875 49.1875 8.4375 48.8125 C6.4375 46.8125 6.4375 46.8125 6.20703125 44.9375 C6.22121094 44.23625 6.23539063 43.535 6.25 42.8125 C6.25644531 42.11125 6.26289063 41.41 6.26953125 40.6875 C6.4375 38.8125 6.4375 38.8125 7.4375 36.8125 C2.4875 37.3075 2.4875 37.3075 -2.5625 37.8125 C-3.5525 41.1125 -4.5425 44.4125 -5.5625 47.8125 C-8.375 48.5 -8.375 48.5 -11.5625 48.8125 C-13.28125 47.625 -13.28125 47.625 -14.5625 45.8125 C-14.63671875 43.55078125 -14.63671875 43.55078125 -14.25 41.125 C-14.13011719 40.31675781 -14.01023438 39.50851563 -13.88671875 38.67578125 C-13.77972656 38.06089844 -13.67273438 37.44601563 -13.5625 36.8125 C-14.8825 36.1525 -16.2025 35.4925 -17.5625 34.8125 C-17.6875 32.4375 -17.6875 32.4375 -17.5625 29.8125 C-15.5625 27.8125 -15.5625 27.8125 -12.9375 27.6875 C-12.15375 27.72875 -11.37 27.77 -10.5625 27.8125 C-10.2325 25.5025 -9.9025 23.1925 -9.5625 20.8125 C-10.51125 20.85375 -11.46 20.895 -12.4375 20.9375 C-15.5625 20.8125 -15.5625 20.8125 -17.5625 18.8125 C-17.8125 16.3125 -17.8125 16.3125 -17.5625 13.8125 C-15.5625 11.8125 -15.5625 11.8125 -13.3984375 11.6171875 C-12.18027344 11.65199219 -12.18027344 11.65199219 -10.9375 11.6875 C-9.71160156 11.71457031 -9.71160156 11.71457031 -8.4609375 11.7421875 C-7.52121094 11.77699219 -7.52121094 11.77699219 -6.5625 11.8125 C-6.52511719 11.19761719 -6.48773438 10.58273438 -6.44921875 9.94921875 C-6.38347656 9.14097656 -6.31773437 8.33273438 -6.25 7.5 C-6.19199219 6.69949219 -6.13398438 5.89898437 -6.07421875 5.07421875 C-5.2402862 1.38836421 -3.83943145 -0.28093401 0 0 Z " fill="#F8F8F8" transform="translate(175.5625,57.1875)"/>
<path d="M0 0 C2.14924542 1.41899987 3.7980383 2.7980383 5.625 4.625 C5.9375 7.625 5.9375 7.625 5.625 10.625 C2.625 12.625 2.625 12.625 0.375 12.5 C-2.375 11.625 -2.375 11.625 -5.6875 9.5625 C-9.60250386 7.24407038 -12.90583047 6.7540398 -17.375 7.625 C-22.12803746 9.43154066 -25.82335412 12.20868982 -28.375 16.625 C-29.63469449 21.23808811 -29.61874188 24.76473454 -28.3125 29.375 C-25.56604727 33.98195296 -22.58067055 36.88977648 -17.375 38.625 C-11.04764901 39.27955355 -7.81176294 38.17009236 -2.55078125 34.62109375 C0.24583933 33.34077374 1.73550812 33.72418737 4.625 34.625 C5.625 35.625 5.625 35.625 6 38.4375 C5.625 41.625 5.625 41.625 3.5 43.8125 C-2.15677145 47.37872548 -6.50881692 49.16533971 -13.25 49.0625 C-13.95962891 49.05275146 -14.66925781 49.04300293 -15.40039062 49.03295898 C-23.82878023 48.7470373 -27.92329052 46.37827085 -33.6875 40.4375 C-38.53312336 34.63036787 -41.08228981 28.29058611 -40.71875 20.65625 C-39.29464165 12.24106432 -34.13645337 5.58358535 -27.70703125 0.23828125 C-20.15559134 -4.51262465 -7.66175874 -4.18478557 0 0 Z " fill="#F7F7F7" transform="translate(146.375,58.375)"/>
<path d="M0 0 C3.63 0 7.26 0 11 0 C10.67 2.31 10.34 4.62 10 7 C6.37 7 2.74 7 -1 7 C-0.67 4.69 -0.34 2.38 0 0 Z " fill="#282828" transform="translate(176,78)"/>
</svg>
