<?xml version="1.0" encoding="UTF-8"?>
<svg version="1.1" xmlns="http://www.w3.org/2000/svg" width="225" height="225">
<path d="M0 0 C74.25 0 148.5 0 225 0 C225 74.25 225 148.5 225 225 C150.75 225 76.5 225 0 225 C0 150.75 0 76.5 0 0 Z " fill="#000000" transform="translate(0,0)"/>
<path d="M0 0 C4.57830877 2.63966763 7.85276799 6.03736996 9.44140625 11.12890625 C10.33482143 16.33624045 10.04955666 20.75670237 7.50390625 25.44140625 C4.49236941 29.67476661 0.3761164 32.51342869 -4.55859375 34.12890625 C-6.8359375 33.75 -6.8359375 33.75 -8.55859375 33.12890625 C-7.02897389 29.68726156 -4.93130309 27.03738867 -2.55859375 24.12890625 C-1.08997486 21.19166847 -1.31065971 18.52298268 -1.24609375 15.25390625 C-1.20871094 14.01898438 -1.17132813 12.7840625 -1.1328125 11.51171875 C-1.28572126 8.08775008 -1.28572126 8.08775008 -3.34375 5.69140625 C-5.61807894 3.78347072 -5.61807894 3.78347072 -9.30859375 4.00390625 C-14.40410659 4.95872405 -17.8017374 7.69145874 -21.55859375 11.12890625 C-22.42097656 11.91007812 -22.42097656 11.91007812 -23.30078125 12.70703125 C-35.54503456 25.23341021 -41.07550375 42.54309243 -40.98339844 59.67822266 C-40.74111898 67.24218721 -38.98219929 72.28116974 -34.05859375 78.06640625 C-29.10518843 82.15296564 -25.20659057 82.68649156 -18.85546875 82.5703125 C-10.24344076 81.41728032 -3.2236508 76.45418874 2.8203125 70.44921875 C4.44140625 69.12890625 4.44140625 69.12890625 7.44140625 69.12890625 C6.65291009 75.3612663 3.09795377 78.22933444 -1.55859375 82.12890625 C-4.77296843 84.39369473 -8.06846212 86.32191875 -11.55859375 88.12890625 C-12.50992188 88.64130859 -12.50992188 88.64130859 -13.48046875 89.1640625 C-20.27485153 92.28541357 -28.79661015 92.36205835 -35.95703125 90.5078125 C-43.21526484 87.28033709 -48.96086035 81.27970039 -51.99609375 74.00390625 C-56.99401007 59.53857136 -54.18062735 44.85432994 -48.07421875 31.078125 C-45.34989136 25.77692094 -42.06468428 20.93926245 -38.55859375 16.12890625 C-38.0996875 15.47148438 -37.64078125 14.8140625 -37.16796875 14.13671875 C-28.63483386 2.98195808 -13.97161064 -4.75674683 0 0 Z " fill="#F5F5F5" transform="translate(135.55859375,67.87109375)"/>
</svg>
