<?xml version="1.0" encoding="UTF-8"?>
<svg version="1.1" xmlns="http://www.w3.org/2000/svg" width="300" height="168">
<path d="M0 0 C99 0 198 0 300 0 C300 55.44 300 110.88 300 168 C201 168 102 168 0 168 C0 112.56 0 57.12 0 0 Z " fill="#000000" transform="translate(0,0)"/>
<path d="M0 0 C0.85078125 -0.020625 1.7015625 -0.04125 2.578125 -0.0625 C7.4084656 -0.09259558 10.72858548 0.05214585 14.625 3.25 C16.38051971 6.76103942 15.85211374 10.75722246 15.875 14.625 C15.895625 15.48867187 15.91625 16.35234375 15.9375 17.2421875 C15.97702814 23.64574552 15.97702814 23.64574552 14.109375 26.8515625 C13.61953125 27.31304687 13.1296875 27.77453125 12.625 28.25 C14.275 29.9 15.925 31.55 17.625 33.25 C11.66796875 33.54296875 11.66796875 33.54296875 9.625 33.25 C9.21636719 32.76015625 8.80773437 32.2703125 8.38671875 31.765625 C5.12160971 28.95661766 0.1165959 29.81409266 -4.0390625 29.81054688 C-7.63678364 29.7193459 -10.07164664 29.38867582 -13.3828125 27.875 C-16.51644542 23.7459778 -16.0246158 19.7234319 -15.875 14.6875 C-15.87757813 13.72908203 -15.88015625 12.77066406 -15.8828125 11.78320312 C-15.78465172 4.77943162 -15.78465172 4.77943162 -14.03320312 2.51586914 C-9.91537057 -0.62767647 -4.92198656 0.02956148 0 0 Z " fill="#D88600" transform="translate(185.375,94.75)"/>
<path d="M0 0 C3.3349297 1.05710979 4.52926432 3.71208932 6.0703125 6.65625 C7.4271562 9.57479554 8.6383161 12.5382119 9.8203125 15.53125 C10.13613281 16.315 10.45195313 17.09875 10.77734375 17.90625 C11.54771078 19.82049535 12.30986497 21.73804246 13.0703125 23.65625 C13.32723877 23.06610107 13.58416504 22.47595215 13.84887695 21.86791992 C15.01961098 19.18996135 16.20107075 16.51686816 17.3828125 13.84375 C17.78693359 12.91498047 18.19105469 11.98621094 18.60742188 11.02929688 C19.00380859 10.13662109 19.40019531 9.24394531 19.80859375 8.32421875 C20.35060425 7.09094849 20.35060425 7.09094849 20.90356445 5.83276367 C22.07466997 3.64812135 23.16983836 2.2348646 25.0703125 0.65625 C27.86912294 0.1408255 30.18790645 0.42748762 33.0703125 0.65625 C35.0703125 2.65625 35.0703125 2.65625 35.29736328 5.36181641 C35.28688965 6.48249512 35.27641602 7.60317383 35.265625 8.7578125 C35.25917969 9.96953125 35.25273438 11.18125 35.24609375 12.4296875 C35.22933594 13.70070313 35.21257812 14.97171875 35.1953125 16.28125 C35.18628906 17.56 35.17726562 18.83875 35.16796875 20.15625 C35.14433553 23.32310167 35.11138879 26.48958424 35.0703125 29.65625 C32.7603125 29.65625 30.4503125 29.65625 28.0703125 29.65625 C27.7403125 23.05625 27.4103125 16.45625 27.0703125 9.65625 C24.52243192 15.48774717 24.52243192 15.48774717 21.98486328 21.32373047 C21.66501465 22.04963379 21.34516602 22.77553711 21.015625 23.5234375 C20.69094238 24.26706543 20.36625977 25.01069336 20.03173828 25.77685547 C19.0703125 27.65625 19.0703125 27.65625 17.0703125 29.65625 C10.79523483 30.22671161 10.79523483 30.22671161 8.4753418 28.40112305 C6.92948275 26.48135682 6.00550132 24.68676842 5.02734375 22.42578125 C4.70999268 21.70237549 4.3926416 20.97896973 4.06567383 20.23364258 C3.48015747 18.86502075 3.48015747 18.86502075 2.8828125 17.46875 C1.6246875 14.560625 0.3665625 11.6525 -0.9296875 8.65625 C-1.2596875 15.58625 -1.5896875 22.51625 -1.9296875 29.65625 C-3.9096875 29.65625 -5.8896875 29.65625 -7.9296875 29.65625 C-7.9875179 25.19797074 -8.02322605 20.7397872 -8.0546875 16.28125 C-8.07144531 15.01023437 -8.08820312 13.73921875 -8.10546875 12.4296875 C-8.11191406 11.21796875 -8.11835937 10.00625 -8.125 8.7578125 C-8.14071045 7.07679443 -8.14071045 7.07679443 -8.15673828 5.36181641 C-7.71319646 0.07651484 -4.65251275 0.35380325 0 0 Z " fill="#005C84" transform="translate(63.9296875,94.34375)"/>
<path d="M0 0 C1.11375 0.7115625 1.11375 0.7115625 2.25 1.4375 C4.8420797 2.91027255 6.32589339 3.31963981 9.1875 3.8125 C18.8673672 5.77746472 26.9620228 12.2430854 32.55078125 20.2109375 C35.50046052 24.92127804 37.672497 29.66238753 39.75 34.8125 C42.78149499 41.62736473 46.28653699 43.39979396 53 46 C56.8192884 48.62576078 57.88021866 49.76043731 60 54 C57.03 54.66 54.06 55.32 51 56 C53.33937572 58.33937572 55.69426628 60.52124775 58.1875 62.6875 C58.90292969 63.31011719 59.61835938 63.93273437 60.35546875 64.57421875 C61.16951172 65.27998047 61.16951172 65.27998047 62 66 C61.67 66.66 61.34 67.32 61 68 C50.30390492 61.08319185 50.30390492 61.08319185 46 57 C46 56.01 46 55.02 46 54 C48.64 53.34 51.28 52.68 54 52 C51.47812931 48.92989655 49.20220708 47.60882398 45.5625 46.25 C38.9644107 43.41303652 37.14557752 38.50462774 34.2734375 32.23828125 C29.63363392 22.26766464 24.69377947 13.95787562 14.3125 9 C10.97772106 7.89824371 10.97772106 7.89824371 7.3125 7.5 C3.79437671 6.96896252 2.6596483 6.21637358 0 4 C-1.64797236 3.28837557 -3.31165408 2.60968047 -5 2 C-3.18542191 6.6890606 -3.18542191 6.6890606 -0.5 10.875 C1.49864477 13.70641342 2.28178524 16.67025263 3.25390625 19.9765625 C3.90892716 22.18813683 3.90892716 22.18813683 6 24 C5.91058194 27.59907688 5.61979503 31.1224064 5.27734375 34.703125 C4.76932665 40.12768463 4.76932665 40.12768463 7 45 C7.99 42.69 8.98 40.38 10 38 C10.99 38 11.98 38 13 38 C13.9795958 39.79143207 14.9586633 41.58315304 15.9375 43.375 C16.48277344 44.37273437 17.02804688 45.37046875 17.58984375 46.3984375 C18.4149759 47.92070346 19.22564391 49.45128783 20 51 C16.63279613 49.60667426 15.0140476 48.0210714 13 45 C12.01 46.32 11.02 47.64 10 49 C7.6875 48.9375 7.6875 48.9375 5 48 C1.62163603 42.52472046 1.47193521 37.31646732 2 31 C2.32291016 29.76056641 2.32291016 29.76056641 2.65234375 28.49609375 C3.09537931 25.31519796 2.34869822 23.97608269 0.8125 21.1875 C0.11640625 19.89199219 0.11640625 19.89199219 -0.59375 18.5703125 C-1.28984375 17.29800781 -1.28984375 17.29800781 -2 16 C-2.7355232 14.52398385 -3.46534641 13.0451032 -4.1875 11.5625 C-5.90296471 8.01870233 -5.90296471 8.01870233 -8 5 C-7.75 2.375 -7.75 2.375 -7 0 C-4.24779828 -1.37610086 -2.93781238 -0.81985462 0 0 Z " fill="#00587D" transform="translate(181,36)"/>
<path d="M0 0 C1.98 0 3.96 0 6 0 C6 4.95 6 9.9 6 15 C11.61 15.33 17.22 15.66 23 16 C23 10.72 23 5.44 23 0 C25.31 0 27.62 0 30 0 C30.14522934 3.91627663 30.23404757 7.83186153 30.3125 11.75 C30.35439453 12.86117187 30.39628906 13.97234375 30.43945312 15.1171875 C30.56339536 23.34695211 30.56339536 23.34695211 27.66796875 26.703125 C23.8609711 28.55367144 21.07997253 29.12184955 16.89453125 29.09765625 C15.91162109 29.09443359 14.92871094 29.09121094 13.91601562 29.08789062 C12.89185547 29.07951172 11.86769531 29.07113281 10.8125 29.0625 C9.77673828 29.05798828 8.74097656 29.05347656 7.67382812 29.04882812 C5.11582734 29.0370401 2.55794267 29.02058515 0 29 C0 27.35 0 25.7 0 24 C7.26 23.67 14.52 23.34 22 23 C22.33 22.01 22.66 21.02 23 20 C21.84242187 20.04640625 20.68484375 20.0928125 19.4921875 20.140625 C17.95315094 20.17816248 16.4140863 20.21456051 14.875 20.25 C14.11445312 20.28351563 13.35390625 20.31703125 12.5703125 20.3515625 C8.62948505 20.4195078 6.15823544 20.06721505 2.46875 18.5 C0 16 0 16 -0.5859375 12.109375 C-0.5462752 10.65509063 -0.47500701 9.20138372 -0.375 7.75 C-0.34792969 7.00492187 -0.32085937 6.25984375 -0.29296875 5.4921875 C-0.22250808 3.66021007 -0.11488993 1.82972849 0 0 Z " fill="#005A80" transform="translate(104,104)"/>
<path d="M0 0 C0.98613281 0.00322266 1.97226563 0.00644531 2.98828125 0.00976562 C4.02082031 0.01814453 5.05335938 0.02652344 6.1171875 0.03515625 C7.67759766 0.04192383 7.67759766 0.04192383 9.26953125 0.04882812 C11.84380712 0.06063673 14.41796896 0.0771055 16.9921875 0.09765625 C16.9921875 1.74765625 16.9921875 3.39765625 16.9921875 5.09765625 C10.0621875 5.09765625 3.1321875 5.09765625 -4.0078125 5.09765625 C-4.0078125 7.40765625 -4.0078125 9.71765625 -4.0078125 12.09765625 C-3.06679687 12.06285156 -2.12578125 12.02804688 -1.15625 11.9921875 C0.71160156 11.95158203 0.71160156 11.95158203 2.6171875 11.91015625 C3.84695312 11.87535156 5.07671875 11.84054688 6.34375 11.8046875 C10.41891896 12.1319227 14.01369747 13.11916622 16.9921875 16.09765625 C17.36078831 19.13105964 17.39691589 22.0676626 16.9921875 25.09765625 C14.42148545 27.93429299 11.57022219 29.01867809 7.72387695 29.21118164 C6.85980225 29.20594482 5.99572754 29.20070801 5.10546875 29.1953125 C4.16767578 29.19208984 3.22988281 29.18886719 2.26367188 29.18554688 C1.28720703 29.17716797 0.31074219 29.16878906 -0.6953125 29.16015625 C-1.68337891 29.15564453 -2.67144531 29.15113281 -3.68945312 29.14648438 C-6.12896724 29.13469928 -8.56835939 29.11824636 -11.0078125 29.09765625 C-11.0078125 27.44765625 -11.0078125 25.79765625 -11.0078125 24.09765625 C-0.6128125 23.60265625 -0.6128125 23.60265625 9.9921875 23.09765625 C9.9921875 21.44765625 9.9921875 19.79765625 9.9921875 18.09765625 C7.89107437 15.99654312 2.67782074 16.79867696 -0.28515625 16.75585938 C-5.0858483 16.55307965 -7.70111816 15.60590148 -11.0078125 12.09765625 C-11.5703125 8.59765625 -11.5703125 8.59765625 -11.0078125 5.09765625 C-7.65840974 0.85507942 -5.25449098 -0.03019822 0 0 Z " fill="#CD8000" transform="translate(149.0078125,94.90234375)"/>
<path d="M0 0 C1.12535156 0.00580078 1.12535156 0.00580078 2.2734375 0.01171875 C3.02367187 0.00785156 3.77390625 0.00398438 4.546875 0 C10.14682697 0.01010822 10.14682697 0.01010822 11.2734375 1.13671875 C11.34668918 3.99939442 11.36581955 6.83743775 11.3359375 9.69921875 C11.33142578 10.50552734 11.32691406 11.31183594 11.32226562 12.14257812 C11.31044268 14.14065631 11.29250664 16.13869658 11.2734375 18.13671875 C10.6134375 18.46671875 9.9534375 18.79671875 9.2734375 19.13671875 C8.4690625 18.39421875 8.4690625 18.39421875 7.6484375 17.63671875 C4.67985305 15.76182331 2.72031323 15.9017045 -0.7265625 16.13671875 C0.2634375 17.45671875 1.2534375 18.77671875 2.2734375 20.13671875 C-4.4765625 20.26171875 -4.4765625 20.26171875 -6.7265625 19.13671875 C-6.75340237 16.15749282 -6.77332287 13.1785058 -6.7890625 10.19921875 C-6.79744141 9.34908203 -6.80582031 8.49894531 -6.81445312 7.62304688 C-6.81767578 6.81416016 -6.82089844 6.00527344 -6.82421875 5.171875 C-6.82945557 4.42301025 -6.83469238 3.67414551 -6.84008789 2.90258789 C-6.58015299 -1.1406576 -3.30099452 0.00595847 0 0 Z " fill="#040200" transform="translate(183.7265625,99.86328125)"/>
<path d="M0 0 C2.31 0 4.62 0 7 0 C7.02505615 0.69150146 7.0501123 1.38300293 7.07592773 2.09545898 C7.19152161 5.20967866 7.31441242 8.32356789 7.4375 11.4375 C7.47681641 12.52611328 7.51613281 13.61472656 7.55664062 14.73632812 C7.61948242 16.28803711 7.61948242 16.28803711 7.68359375 17.87109375 C7.72025146 18.82943115 7.75690918 19.78776855 7.79467773 20.77514648 C7.75834424 22.97138925 7.75834424 22.97138925 9 24 C10.41327947 24.15620555 11.8335459 24.25056173 13.25390625 24.31640625 C14.53491211 24.37924805 14.53491211 24.37924805 15.84179688 24.44335938 C16.73962891 24.48267578 17.63746094 24.52199219 18.5625 24.5625 C19.91504883 24.62727539 19.91504883 24.62727539 21.29492188 24.69335938 C23.52978485 24.79978142 25.76476308 24.90179988 28 25 C28 26.32 28 27.64 28 29 C24.6043303 29.08745946 21.20895227 29.14054444 17.8125 29.1875 C16.85279297 29.21263672 15.89308594 29.23777344 14.90429688 29.26367188 C5.90486872 29.35709154 5.90486872 29.35709154 2 26 C-0.23413013 22.64880481 -0.23847762 21.5822245 -0.1953125 17.67578125 C-0.18886719 16.64775391 -0.18242187 15.61972656 -0.17578125 14.56054688 C-0.15064453 12.95276367 -0.15064453 12.95276367 -0.125 11.3125 C-0.11597656 10.22904297 -0.10695312 9.14558594 -0.09765625 8.02929688 C-0.0740734 5.3526429 -0.04116126 2.67643203 0 0 Z " fill="#D28300" transform="translate(204,95)"/>
<path d="M0 0 C2.5 0.25 2.5 0.25 4.5 2.25 C4.75 4.75 4.75 4.75 4.5 7.25 C2.5 9.25 2.5 9.25 0 9.5 C-2.5 9.25 -2.5 9.25 -4.5 7.25 C-4.75 4.75 -4.75 4.75 -4.5 2.25 C-2.5 0.25 -2.5 0.25 0 0 Z " fill="#A26500" transform="translate(239.5,114.75)"/>
<path d="M0 0 C4.46434217 0.8948351 7.59077564 3.04591139 11 6 C12.4375 8.3125 12.4375 8.3125 13 10 C10.69 10.33 8.38 10.66 6 11 C6.33 9.68 6.66 8.36 7 7 C6.030625 6.401875 5.06125 5.80375 4.0625 5.1875 C1 3 1 3 0 0 Z " fill="#005274" transform="translate(228,80)"/>
<path d="M0 0 C2.4375 0.1875 2.4375 0.1875 3.4375 1.1875 C3.47813832 2.85367115 3.480221 4.52138095 3.4375 6.1875 C2.7775 6.1875 2.1175 6.1875 1.4375 6.1875 C1.4375 5.5275 1.4375 4.8675 1.4375 4.1875 C0.7775 3.8575 0.1175 3.5275 -0.5625 3.1875 C-0.8925 2.8575 -1.2225 2.5275 -1.5625 2.1875 C-1.5625 3.8375 -1.5625 5.4875 -1.5625 7.1875 C-3.5625 6.1875 -3.5625 6.1875 -4.3125 4.25 C-4.395 3.569375 -4.4775 2.88875 -4.5625 2.1875 C-2.5625 0.1875 -2.5625 0.1875 0 0 Z " fill="#5A3800" transform="translate(239.5625,114.8125)"/>
<path d="M0 0 C3 1 3 1 4 3 C4.66 2.01 5.32 1.02 6 0 C6.1875 2.375 6.1875 2.375 6 5 C5.01 5.66 4.02 6.32 3 7 C0 3.375 0 3.375 0 0 Z " fill="#004F70" transform="translate(184,78)"/>
</svg>
