<svg version="1.1" id="Layer_1" xmlns="http://www.w3.org/2000/svg" xmlns:xlink="http://www.w3.org/1999/xlink" x="0px" y="0px"
	 width="100%" viewBox="0 0 735 386" enable-background="new 0 0 735 386" xml:space="preserve">
<path fill="#010101" opacity="1.000000" stroke="none" 
	d="
M553.000000,387.000000 
	C429.977356,387.000000 306.954712,387.000000 183.415985,386.656067 
	C177.492432,382.873047 175.538483,378.035950 175.545135,371.578247 
	C175.666199,253.891663 175.679199,136.204849 175.506180,18.518381 
	C175.494995,10.904477 177.049225,4.850972 184.000000,1.000000 
	C306.355957,1.000000 428.711914,1.000000 551.688477,1.319184 
	C559.211853,4.082358 561.378479,7.515630 561.379089,16.314386 
	C561.387329,134.053329 561.332214,251.792358 561.498169,369.531067 
	C561.508850,377.132050 559.890747,383.142731 553.000000,387.000000 
M377.702789,219.685532 
	C380.332184,221.547974 382.961578,223.410400 386.169800,225.682846 
	C385.496246,228.843552 384.552582,232.859695 383.796204,236.910828 
	C382.413696,244.315414 385.802216,250.037994 392.330536,251.529114 
	C398.666504,252.976273 404.278442,249.103271 406.178833,241.773376 
	C407.389191,237.104904 408.239380,232.342209 409.484406,227.684113 
	C409.811584,226.459930 410.976471,224.540543 411.807709,224.513580 
	C419.396820,224.267380 426.997223,224.368927 435.074188,224.368927 
	C434.377289,227.394241 433.839966,229.626999 433.352509,231.870560 
	C432.857819,234.147293 432.251587,236.415573 431.976593,238.721222 
	C431.266541,244.674225 434.645721,249.720840 440.234680,251.311203 
	C445.728027,252.874359 451.438263,250.265259 453.716827,244.727264 
	C454.905518,241.838226 455.444458,238.668076 456.147003,235.595215 
	C458.678528,224.522675 458.657654,224.517899 470.210205,224.389053 
	C470.876434,224.381622 471.544373,224.403534 472.208588,224.363205 
	C478.884705,223.957703 483.695831,219.143814 483.671600,212.905548 
	C483.647430,206.687363 478.829346,201.827072 472.159821,201.442795 
	C469.555084,201.292725 466.934448,201.418228 463.936127,201.418228 
	C465.192078,196.046371 466.278687,191.398895 467.335266,186.879837 
	C478.408875,185.930939 482.577271,183.210587 483.542603,176.538834 
	C484.419159,170.480652 481.228851,166.405701 472.729034,162.942688 
	C473.531708,159.270035 474.388153,155.559113 475.148712,151.828613 
	C476.791107,143.772934 473.520966,137.984406 466.529266,136.473312 
	C459.891083,135.038635 454.642242,138.970627 452.731415,146.851196 
	C451.375732,152.442337 450.064697,158.044327 448.826447,163.251511 
	C440.226562,163.251511 432.313904,163.251511 424.099976,163.251511 
	C425.121185,158.611282 426.222717,154.431885 426.933563,150.187057 
	C428.064362,143.434143 424.519073,138.029922 418.267670,136.544006 
	C412.108887,135.080093 406.552185,138.541656 404.606110,145.118286 
	C404.040405,147.029892 403.648193,148.992584 403.167450,150.929611 
	C402.171234,154.943466 402.386383,160.406708 399.823700,162.557037 
	C397.305725,164.669861 391.964203,163.418671 387.861572,163.640747 
	C387.362671,163.667770 386.861420,163.658463 386.363586,163.696503 
	C380.023102,164.180939 375.378113,169.037476 375.424438,175.127258 
	C375.470612,181.200439 380.143951,186.086304 386.460358,186.478424 
	C389.217102,186.649551 391.993317,186.507172 395.183563,186.507172 
	C393.919800,191.912430 392.834595,196.553955 391.782532,201.053604 
	C377.244354,202.442886 372.567993,208.415466 377.702789,219.685532 
M273.474854,239.028793 
	C288.152985,252.038010 305.271454,257.348236 324.693787,254.964706 
	C337.253662,253.423370 348.325165,248.287689 357.901703,240.048538 
	C362.998535,235.663498 363.709595,228.895035 359.848022,223.994568 
	C355.948578,219.046036 349.399933,218.221436 343.773376,221.987381 
	C342.667084,222.727844 341.581573,223.502945 340.521332,224.307999 
	C334.115173,229.172089 326.896881,231.698746 318.875305,232.326797 
	C298.302856,233.937531 279.254639,218.776886 276.774689,198.662521 
	C274.271454,178.359283 288.855133,159.317337 309.511169,156.062714 
	C322.287109,154.049728 333.398254,157.852402 343.520416,165.669754 
	C349.109924,169.986526 355.968292,168.840973 359.880157,163.625290 
	C363.631012,158.624237 362.718323,151.951172 357.550476,147.607834 
	C345.188354,137.218002 330.838501,131.765884 314.759583,132.528503 
	C288.095215,133.793182 268.180817,146.423309 258.058044,171.326553 
	C247.780701,196.610077 253.879456,219.278107 273.474854,239.028793 
z"/>
<path fill="#FEFEFE" opacity="1.000000" stroke="none" 
	d="
M553.468628,387.000000 
	C559.890747,383.142731 561.508850,377.132050 561.498169,369.531067 
	C561.332214,251.792358 561.387329,134.053329 561.379089,16.314386 
	C561.378479,7.515630 559.211853,4.082358 552.154541,1.319184 
	C613.297668,1.000000 674.595398,1.000000 735.946533,1.000000 
	C735.946533,129.556244 735.946533,258.112518 735.946533,387.000000 
	C675.312866,387.000000 614.625061,387.000000 553.468628,387.000000 
z"/>
<path fill="#FEFEFE" opacity="1.000000" stroke="none" 
	d="
M183.531342,1.000000 
	C177.049225,4.850972 175.494995,10.904477 175.506180,18.518381 
	C175.679199,136.204849 175.666199,253.891663 175.545135,371.578247 
	C175.538483,378.035950 177.492432,382.873047 182.949951,386.656067 
	C122.368690,387.000000 61.737373,387.000000 1.053031,387.000000 
	C1.053031,258.443695 1.053031,129.887344 1.053031,1.000000 
	C61.687160,1.000000 122.374924,1.000000 183.531342,1.000000 
z"/>
<path fill="#FAFAFA" opacity="1.000000" stroke="none" 
	d="
M377.474182,219.389206 
	C372.567993,208.415466 377.244354,202.442886 391.782532,201.053604 
	C392.834595,196.553955 393.919800,191.912430 395.183563,186.507172 
	C391.993317,186.507172 389.217102,186.649551 386.460358,186.478424 
	C380.143951,186.086304 375.470612,181.200439 375.424438,175.127258 
	C375.378113,169.037476 380.023102,164.180939 386.363586,163.696503 
	C386.861420,163.658463 387.362671,163.667770 387.861572,163.640747 
	C391.964203,163.418671 397.305725,164.669861 399.823700,162.557037 
	C402.386383,160.406708 402.171234,154.943466 403.167450,150.929611 
	C403.648193,148.992584 404.040405,147.029892 404.606110,145.118286 
	C406.552185,138.541656 412.108887,135.080093 418.267670,136.544006 
	C424.519073,138.029922 428.064362,143.434143 426.933563,150.187057 
	C426.222717,154.431885 425.121185,158.611282 424.099976,163.251511 
	C432.313904,163.251511 440.226562,163.251511 448.826447,163.251511 
	C450.064697,158.044327 451.375732,152.442337 452.731415,146.851196 
	C454.642242,138.970627 459.891083,135.038635 466.529266,136.473312 
	C473.520966,137.984406 476.791107,143.772934 475.148712,151.828613 
	C474.388153,155.559113 473.531708,159.270035 472.729034,162.942688 
	C481.228851,166.405701 484.419159,170.480652 483.542603,176.538834 
	C482.577271,183.210587 478.408875,185.930939 467.335266,186.879837 
	C466.278687,191.398895 465.192078,196.046371 463.936127,201.418228 
	C466.934448,201.418228 469.555084,201.292725 472.159821,201.442795 
	C478.829346,201.827072 483.647430,206.687363 483.671600,212.905548 
	C483.695831,219.143814 478.884705,223.957703 472.208588,224.363205 
	C471.544373,224.403534 470.876434,224.381622 470.210205,224.389053 
	C458.657654,224.517899 458.678528,224.522675 456.147003,235.595215 
	C455.444458,238.668076 454.905518,241.838226 453.716827,244.727264 
	C451.438263,250.265259 445.728027,252.874359 440.234680,251.311203 
	C434.645721,249.720840 431.266541,244.674225 431.976593,238.721222 
	C432.251587,236.415573 432.857819,234.147293 433.352509,231.870560 
	C433.839966,229.626999 434.377289,227.394241 435.074188,224.368927 
	C426.997223,224.368927 419.396820,224.267380 411.807709,224.513580 
	C410.976471,224.540543 409.811584,226.459930 409.484406,227.684113 
	C408.239380,232.342209 407.389191,237.104904 406.178833,241.773376 
	C404.278442,249.103271 398.666504,252.976273 392.330536,251.529114 
	C385.802216,250.037994 382.413696,244.315414 383.796204,236.910828 
	C384.552582,232.859695 385.496246,228.843552 386.169800,225.682846 
	C382.961578,223.410400 380.332184,221.547974 377.474182,219.389206 
M416.320374,197.146118 
	C416.189453,198.500229 416.058502,199.854340 415.908325,201.407333 
	C423.499451,201.407333 430.445587,201.494766 437.385162,201.320984 
	C438.537231,201.292114 440.408905,200.340530 440.668945,199.444260 
	C441.843323,195.396103 442.557922,191.214523 443.548523,186.562851 
	C438.176483,186.562851 433.405029,186.564301 428.633606,186.562531 
	C418.526672,186.558762 418.526672,186.558090 416.320374,197.146118 
z"/>
<path fill="#FBFBFB" opacity="1.000000" stroke="none" 
	d="
M273.196289,238.810760 
	C253.879456,219.278107 247.780701,196.610077 258.058044,171.326553 
	C268.180817,146.423309 288.095215,133.793182 314.759583,132.528503 
	C330.838501,131.765884 345.188354,137.218002 357.550476,147.607834 
	C362.718323,151.951172 363.631012,158.624237 359.880157,163.625290 
	C355.968292,168.840973 349.109924,169.986526 343.520416,165.669754 
	C333.398254,157.852402 322.287109,154.049728 309.511169,156.062714 
	C288.855133,159.317337 274.271454,178.359283 276.774689,198.662521 
	C279.254639,218.776886 298.302856,233.937531 318.875305,232.326797 
	C326.896881,231.698746 334.115173,229.172089 340.521332,224.307999 
	C341.581573,223.502945 342.667084,222.727844 343.773376,221.987381 
	C349.399933,218.221436 355.948578,219.046036 359.848022,223.994568 
	C363.709595,228.895035 362.998535,235.663498 357.901703,240.048538 
	C348.325165,248.287689 337.253662,253.423370 324.693787,254.964706 
	C305.271454,257.348236 288.152985,252.038010 273.196289,238.810760 
z"/>
<path fill="#050505" opacity="1.000000" stroke="none" 
	d="
M416.464844,196.718018 
	C418.526672,186.558090 418.526672,186.558762 428.633606,186.562531 
	C433.405029,186.564301 438.176483,186.562851 443.548523,186.562851 
	C442.557922,191.214523 441.843323,195.396103 440.668945,199.444260 
	C440.408905,200.340530 438.537231,201.292114 437.385162,201.320984 
	C430.445587,201.494766 423.499451,201.407333 415.908325,201.407333 
	C416.058502,199.854340 416.189453,198.500229 416.464844,196.718018 
z"/>
</svg>