<?xml version="1.0" encoding="UTF-8"?>
<svg version="1.1" xmlns="http://www.w3.org/2000/svg" width="225" height="225">
<path d="M0 0 C74.25 0 148.5 0 225 0 C225 74.25 225 148.5 225 225 C150.75 225 76.5 225 0 225 C0 150.75 0 76.5 0 0 Z " fill="#4D4D4D" transform="translate(0,0)"/>
<path d="M0 0 C21.12 0 42.24 0 64 0 C64 19.14 64 38.28 64 58 C63.67 58 63.34 58 63 58 C62.76216797 56.47632812 62.76216797 56.47632812 62.51953125 54.921875 C59.66885146 37.68745546 53.58595449 22.6079669 39 12 C27.35795385 4.66856569 13.64227145 1.57806235 0 1 C0 0.67 0 0.34 0 0 Z " fill="#FBFBFB" transform="translate(161,0)"/>
<path d="M0 0 C0.33 0 0.66 0 1 0 C1.07476562 1.11375 1.14953125 2.2275 1.2265625 3.375 C2.62138566 20.67004397 7.2932899 35.77299018 20.0625 48.1875 C30.77025713 57.19879816 44.21972164 61.69997374 58 63 C58 63.33 58 63.66 58 64 C38.86 64 19.72 64 0 64 C0 42.88 0 21.76 0 0 Z " fill="#FCFCFC" transform="translate(0,161)"/>
<path d="M0 0 C0.33 0 0.66 0 1 0 C1 19.14 1 38.28 1 58 C-18.14 58 -37.28 58 -57 58 C-57 57.67 -57 57.34 -57 57 C-56.06800781 56.84144531 -55.13601562 56.68289062 -54.17578125 56.51953125 C-36.93827762 53.36484151 -21.62311368 47.73528671 -11 33 C-4.76724894 22.41421645 -1.73675486 12.07555438 0 0 Z " fill="#FCFCFC" transform="translate(224,167)"/>
<path d="M0 0 C19.14 0 38.28 0 58 0 C58 0.33 58 0.66 58 1 C56.98421875 1.15855469 55.9684375 1.31710938 54.921875 1.48046875 C38.80946637 4.14556098 24.69199502 9.51135915 13.8828125 22.35546875 C6.30604535 32.99752551 2.22176556 45.0492851 1 58 C0.67 58 0.34 58 0 58 C0 38.86 0 19.72 0 0 Z " fill="#FDFDFD" transform="translate(0,0)"/>
<path d="M0 0 C0.87140625 -0.00386719 1.7428125 -0.00773437 2.640625 -0.01171875 C3.54296875 -0.00011719 4.4453125 0.01148437 5.375 0.0234375 C6.72851562 0.00603516 6.72851562 0.00603516 8.109375 -0.01171875 C9.41648438 -0.00591797 9.41648438 -0.00591797 10.75 0 C11.54148438 0.00338379 12.33296875 0.00676758 13.1484375 0.01025391 C15.99255316 0.50610302 17.3503431 1.3472903 19.375 3.3984375 C19.82910156 5.51147461 19.82910156 5.51147461 19.765625 7.92578125 C19.74628906 9.23772461 19.74628906 9.23772461 19.7265625 10.57617188 C19.69304687 11.48689453 19.65953125 12.39761719 19.625 13.3359375 C19.60695312 14.24279297 19.58890625 15.14964844 19.5703125 16.08398438 C19.53547452 17.77487039 19.49241592 19.46562137 19.43847656 21.15600586 C19.20753128 26.06341323 19.20753128 26.06341323 21.375 30.3984375 C14.81722085 30.77677091 14.81722085 30.77677091 12.64453125 28.91796875 C8.88362551 26.39990965 4.52032623 26.92610945 0.13085938 26.87109375 C-5.20785628 26.70255491 -5.20785628 26.70255491 -7.32617188 25.15820312 C-9.83762141 21.75547225 -9.09406776 17.47354796 -9.0625 13.3984375 C-9.08248047 12.48320313 -9.10246094 11.56796875 -9.12304688 10.625 C-9.12240234 9.74585937 -9.12175781 8.86671875 -9.12109375 7.9609375 C-9.12294678 7.15785156 -9.1247998 6.35476562 -9.12670898 5.52734375 C-8.625 3.3984375 -8.625 3.3984375 -6.88305664 1.63818359 C-4.35531848 0.25037363 -2.86448339 0.01224637 0 0 Z " fill="#F9F9F9" transform="translate(142.625,103.6015625)"/>
<path d="M0 0 C2.6590865 0.07212712 3.76774517 0.21182096 5.68359375 2.09765625 C7.03588529 4.2166676 8.13002279 6.34446195 9.1875 8.625 C9.58066406 9.42679688 9.97382812 10.22859375 10.37890625 11.0546875 C13.1875 17.02417247 13.1875 17.02417247 13.1875 20.625 C13.8475 20.625 14.5075 20.625 15.1875 20.625 C15.32671875 19.61179687 15.32671875 19.61179687 15.46875 18.578125 C16.36443788 14.89801608 17.96041439 11.71819383 19.6875 8.375 C20.16896484 7.41980469 20.16896484 7.41980469 20.66015625 6.4453125 C23.03253517 1.77996483 23.03253517 1.77996483 24.1875 0.625 C29.92361111 0.35185185 29.92361111 0.35185185 32.1875 0.625 C34.1875 2.625 34.1875 2.625 34.41455078 5.05517578 C34.40407715 6.0501709 34.39360352 7.04516602 34.3828125 8.0703125 C34.37636719 9.14667969 34.36992188 10.22304687 34.36328125 11.33203125 C34.34652344 12.45996094 34.32976562 13.58789062 34.3125 14.75 C34.30347656 15.88566406 34.29445312 17.02132812 34.28515625 18.19140625 C34.26153098 21.00281299 34.22859013 23.81380298 34.1875 26.625 C31.8775 26.625 29.5675 26.625 27.1875 26.625 C26.8575 21.345 26.5275 16.065 26.1875 10.625 C24.33977797 15.09391299 24.33977797 15.09391299 22.50854492 19.56958008 C19.98889053 25.55537111 19.98889053 25.55537111 17.1875 27.625 C14.3125 28.3125 14.3125 28.3125 11.1875 27.625 C6.89284866 22.9601201 4.58547217 16.41228479 2.1875 10.625 C2.12691406 11.69621094 2.06632812 12.76742187 2.00390625 13.87109375 C1.91951463 15.26824391 1.83486594 16.66537857 1.75 18.0625 C1.71068359 18.76955078 1.67136719 19.47660156 1.63085938 20.20507812 C1.30078125 25.51171875 1.30078125 25.51171875 0.1875 26.625 C-1.81208364 26.66580783 -3.81295254 26.66754356 -5.8125 26.625 C-5.87035647 22.66672765 -5.90604717 18.7085633 -5.9375 14.75 C-5.95425781 13.62207031 -5.97101562 12.49414062 -5.98828125 11.33203125 C-5.99472656 10.25566406 -6.00117188 9.17929688 -6.0078125 8.0703125 C-6.01828613 7.07531738 -6.02875977 6.08032227 -6.03955078 5.05517578 C-5.64343353 0.81544344 -4.04486069 0.66309192 0 0 Z " fill="#F7F7F7" transform="translate(35.8125,103.375)"/>
<path d="M0 0 C5.70166469 0.28508323 10.8365925 2.745769 16 5 C16.85335937 5.3609375 17.70671875 5.721875 18.5859375 6.09375 C29.01975315 10.84514913 34.46745479 18.01039249 39.375 28.125 C43.44534809 36.04036056 46.71464732 40.3490802 55 44 C56.97105281 45.54931854 58.3854639 47.06255668 60 49 C60 49.66 60 50.32 60 51 C57.36 51.66 54.72 52.32 52 53 C52.5775 53.48210937 53.155 53.96421875 53.75 54.4609375 C54.4925 55.09257813 55.235 55.72421875 56 56.375 C56.7425 57.00148437 57.485 57.62796875 58.25 58.2734375 C58.8275 58.84320313 59.405 59.41296875 60 60 C60 60.66 60 61.32 60 62 C56.24651068 60.65994431 53.34103233 58.99432841 50.1875 56.5625 C49.39730469 55.96566406 48.60710937 55.36882812 47.79296875 54.75390625 C47.20128906 54.17511719 46.60960937 53.59632812 46 53 C46 52.01 46 51.02 46 50 C48.31 49.01 50.62 48.02 53 47 C52.154375 46.69191406 51.30875 46.38382813 50.4375 46.06640625 C41.58073692 42.1915724 38.46781426 38.29258634 34.81835938 29.42333984 C31.31460087 20.97928184 26.05897224 13.55921629 17.39453125 9.87109375 C16.60433594 9.58363281 15.81414062 9.29617187 15 9 C13.80761719 8.55785156 12.61523438 8.11570312 11.38671875 7.66015625 C7.93813287 6.39992047 4.47338591 5.19031764 1 4 C2.28921216 6.60540782 3.58125596 9.20934373 4.875 11.8125 C5.23980469 12.55048828 5.60460937 13.28847656 5.98046875 14.04882812 C6.33496094 14.76103516 6.68945312 15.47324219 7.0546875 16.20703125 C7.37937012 16.8616333 7.70405273 17.51623535 8.03857422 18.19067383 C9.09255672 20.24652798 9.09255672 20.24652798 11 23 C11.22705078 25.0847168 11.22705078 25.0847168 11.1953125 27.44921875 C11.18564453 28.72055664 11.18564453 28.72055664 11.17578125 30.01757812 C11.15902344 30.89865234 11.14226562 31.77972656 11.125 32.6875 C11.11597656 33.58017578 11.10695312 34.47285156 11.09765625 35.39257812 C11.07409748 37.59532314 11.04120329 39.79752588 11 42 C11.66 42 12.32 42 13 42 C13.33 39.69 13.66 37.38 14 35 C14.99 35 15.98 35 17 35 C18.57796258 37.10592751 19.91906436 39.12191609 21.25 41.375 C21.62640625 41.97828125 22.0028125 42.5815625 22.390625 43.203125 C23.33220684 44.76088908 24.17431693 46.37782468 25 48 C24.67 48.66 24.34 49.32 24 50 C21.09197539 47.78071806 19.04687238 46.07030857 17 43 C16.5875 43.515625 16.175 44.03125 15.75 44.5625 C14 46 14 46 12 46 C9.09135348 44.54567674 8.37077661 42.93171877 7 40 C7.0234375 36.609375 7.0234375 36.609375 7.375 32.75 C7.84599045 23.91996191 4.45052802 18.02356649 -0.03125 10.64453125 C-1.7896424 7.64804001 -2.67349444 5.54232173 -2 2 C-1.34 1.34 -0.68 0.68 0 0 Z " fill="#F1F1F1" transform="translate(139,49)"/>
<path d="M0 0 C2.5 0.125 2.5 0.125 3.5 1.125 C3.7792944 4.36650779 3.7318318 7.62289302 3.75 10.875 C3.770625 11.7825 3.79125 12.69 3.8125 13.625 C3.84148889 18.58209971 3.83005725 22.14832969 0.5 26.125 C-2.05723229 27.40361615 -3.86737102 27.23836609 -6.7265625 27.22265625 C-7.7578125 27.21943359 -8.7890625 27.21621094 -9.8515625 27.21289062 C-11.47191406 27.20032227 -11.47191406 27.20032227 -13.125 27.1875 C-14.75695312 27.18073242 -14.75695312 27.18073242 -16.421875 27.17382812 C-19.11463789 27.16201776 -21.80729188 27.14554778 -24.5 27.125 C-24.5 25.805 -24.5 24.485 -24.5 23.125 C-18.23 22.795 -11.96 22.465 -5.5 22.125 C-5.17 21.465 -4.84 20.805 -4.5 20.125 C-5.60859375 20.09921875 -6.7171875 20.0734375 -7.859375 20.046875 C-9.32295547 19.99058344 -10.78649562 19.93323633 -12.25 19.875 C-12.97960937 19.86082031 -13.70921875 19.84664062 -14.4609375 19.83203125 C-17.81883571 19.67939951 -20.1444698 19.35165051 -23 17.53125 C-25.07810635 14.19762107 -24.89421677 11.76885279 -24.75 7.875 C-24.71390625 6.61171875 -24.6778125 5.3484375 -24.640625 4.046875 C-24.59421875 3.08265625 -24.5478125 2.1184375 -24.5 1.125 C-22.50045254 1.08245644 -20.49958364 1.08419217 -18.5 1.125 C-17.5 2.125 -17.5 2.125 -17.40234375 5.06640625 C-17.43489583 8.41927083 -17.46744792 11.77213542 -17.5 15.125 C-12.88 15.125 -8.26 15.125 -3.5 15.125 C-3.520625 12.835625 -3.54125 10.54625 -3.5625 8.1875 C-3.58370868 5.83333668 -3.57271741 3.47813555 -3.5 1.125 C-2.5 0.125 -2.5 0.125 0 0 Z " fill="#F6F6F6" transform="translate(98.5,110.875)"/>
<path d="M0 0 C1.03125 0.01804687 2.0625 0.03609375 3.125 0.0546875 C5.66761064 0.10177288 8.20833162 0.1675195 10.75 0.25 C10.75 1.57 10.75 2.89 10.75 4.25 C4.81 4.58 -1.13 4.91 -7.25 5.25 C-7.25 6.9 -7.25 8.55 -7.25 10.25 C-6.36957031 10.26417969 -5.48914063 10.27835938 -4.58203125 10.29296875 C4.84484565 10.680088 4.84484565 10.680088 9.125 13.375 C10.75 16.25 10.75 16.25 10.75 19.875 C9.40591398 24.41129032 9.40591398 24.41129032 6.75 26.25 C3.98434618 27.17188461 2.36716298 27.36785222 -0.48046875 27.34765625 C-1.28291016 27.34443359 -2.08535156 27.34121094 -2.91210938 27.33789062 C-3.74548828 27.32951172 -4.57886719 27.32113281 -5.4375 27.3125 C-6.28248047 27.30798828 -7.12746094 27.30347656 -7.99804688 27.29882812 C-10.08206155 27.28705403 -12.16603977 27.2691189 -14.25 27.25 C-14.58 25.6 -14.91 23.95 -15.25 22.25 C-9.31 21.92 -3.37 21.59 2.75 21.25 C2.75 19.6 2.75 17.95 2.75 16.25 C1.78578125 16.22421875 0.8215625 16.1984375 -0.171875 16.171875 C-2.06679687 16.08679688 -2.06679687 16.08679688 -4 16 C-5.25296875 15.95359375 -6.5059375 15.9071875 -7.796875 15.859375 C-11.69908033 15.17075053 -12.94631458 14.42041854 -15.25 11.25 C-15.781327 7.53071097 -15.8830154 5.30006084 -13.921875 2.046875 C-9.59233877 -0.86480141 -5.0817221 -0.16767103 0 0 Z " fill="#F3F3F3" transform="translate(120.25,103.75)"/>
<path d="M0 0 C1.0725 0.01417969 2.145 0.02835937 3.25 0.04296875 C4.3225 0.04941406 5.395 0.05585937 6.5 0.0625 C9.25 0.23046875 9.25 0.23046875 11.25 1.23046875 C11.25 6.84046875 11.25 12.45046875 11.25 18.23046875 C9.93 17.24046875 8.61 16.25046875 7.25 15.23046875 C4.08267579 14.97960151 4.08267579 14.97960151 1.25 15.23046875 C2.24 16.71546875 2.24 16.71546875 3.25 18.23046875 C0.375 18.35546875 0.375 18.35546875 -2.75 18.23046875 C-4.75 16.23046875 -4.75 16.23046875 -5.015625 13.04296875 C-5.01046875 11.78484375 -5.0053125 10.52671875 -5 9.23046875 C-5.00515625 7.97234375 -5.0103125 6.71421875 -5.015625 5.41796875 C-4.6779794 1.36622159 -4.11235033 0.344643 0 0 Z " fill="#515151" transform="translate(144.75,107.76953125)"/>
<path d="M0 0 C1.98 0 3.96 0 6 0 C6.02505615 0.60062256 6.0501123 1.20124512 6.07592773 1.82006836 C6.1915528 4.52611437 6.31442936 7.23178283 6.4375 9.9375 C6.47681641 10.88302734 6.51613281 11.82855469 6.55664062 12.80273438 C6.59853516 13.70185547 6.64042969 14.60097656 6.68359375 15.52734375 C6.72025146 16.35999756 6.75690918 17.19265137 6.79467773 18.05053711 C6.79367103 20.00338858 6.79367103 20.00338858 8 21 C9.34015221 21.15582303 10.68758903 21.25044142 12.03515625 21.31640625 C12.84404297 21.35830078 13.65292969 21.40019531 14.48632812 21.44335938 C15.33646484 21.48267578 16.18660156 21.52199219 17.0625 21.5625 C17.91650391 21.60568359 18.77050781 21.64886719 19.65039062 21.69335938 C21.76672037 21.79976702 23.88333813 21.90041731 26 22 C26 23.32 26 24.64 26 26 C22.41694008 26.11627503 18.83436583 26.1872736 15.25 26.25 C14.23421875 26.28351563 13.2184375 26.31703125 12.171875 26.3515625 C4.91537332 26.44704279 4.91537332 26.44704279 1.3125 24.6875 C-0.87695686 20.20432644 -0.41188074 15.6562318 -0.25 10.75 C-0.23195312 9.71875 -0.21390625 8.6875 -0.1953125 7.625 C-0.14822712 5.08238936 -0.0824805 2.54166838 0 0 Z " fill="#F9F9F9" transform="translate(165,104)"/>
<path d="M0 0 C2.64 0 5.28 0 8 0 C8 0.99 8 1.98 8 3 C7.01 3.33 6.02 3.66 5 4 C5 3.01 5 2.02 5 1 C3.35 1 1.7 1 0 1 C0 0.67 0 0.34 0 0 Z " fill="#747474" transform="translate(86,130)"/>
</svg>
